/* XPM */
static char * en48_xpm[] = {
"22 22 80 1",
" 	c None",
".	c #FF4949",
"+	c #ECE4F7",
"@	c #3232FF",
"#	c #0000FF",
"$	c #4A4AFF",
"%	c #FF9F9F",
"&	c #FF0000",
"*	c #FF2A2A",
"=	c #BFBFFF",
"-	c #FF1313",
";	c #FF4F4F",
">	c #E7DBF3",
",	c #3535FF",
"'	c #FFCDCD",
")	c #FF1818",
"!	c #FF5252",
"~	c #E6D9F2",
"{	c #3434FF",
"]	c #7C7CFF",
"^	c #FFCACA",
"/	c #FF1919",
"(	c #FF5151",
"_	c #E9DEF4",
":	c #2F2FFF",
"<	c #0303FF",
"[	c #7B7BFF",
"}	c #FFCBCB",
"|	c #FF1616",
"1	c #FF4D4D",
"2	c #EAE6FB",
"3	c #2C2CFF",
"4	c #0202FF",
"5	c #FDCDD0",
"6	c #FF1515",
"7	c #FBCFD3",
"8	c #7E7EFF",
"9	c #E4E4FF",
"0	c #FFF2F2",
"a	c #C2C2FF",
"b	c #FF4A4A",
"c	c #FFD2D2",
"d	c #FF6464",
"e	c #FF1B1B",
"f	c #FF0707",
"g	c #DFDFFF",
"h	c #FFF7F7",
"i	c #FFBFBF",
"j	c #FFEFEF",
"k	c #2323FF",
"l	c #E0DCFB",
"m	c #FF5F5F",
"n	c #FF1212",
"o	c #FFD4D4",
"p	c #DEDEFF",
"q	c #FF5D5D",
"r	c #FF0D0D",
"s	c #CECEFF",
"t	c #FFFFFF",
"u	c #2525FF",
"v	c #FF0B0B",
"w	c #FEC4C5",
"x	c #8E8EFF",
"y	c #4D4DFF",
"z	c #2727FF",
"A	c #E0D8F7",
"B	c #DFD6F6",
"C	c #FF6262",
"D	c #E2DCF9",
"E	c #FF6161",
"F	c #FFBCBC",
"G	c #8D8DFF",
"H	c #FF1010",
"I	c #FFBDBD",
"J	c #8C8CFF",
"K	c #0505FF",
"L	c #FF0A0A",
"M	c #FFC1C1",
"N	c #8F8FFF",
"O	c #0404FF",
".+@#####$%&&*=#####@+.",
"-;>,####$%&&*=####,>;-",
"')!~{###$%&&*=###{~!)'",
"]^/(_:##$%&&*=##:_(/^]",
"<[}|123#$%&&*=#321|}[<",
"#4[56.2:$%&&*=:2.65[4#",
"###[761_8%&&*9_167[###",
"####[5|(0%&&*0(|5[####",
"$$$$$a}bc%&&*cb}a$$$$$",
"%%%%%%%%%d&&e%%%%%%%%%",
"&&&&&&&&&&&&&&&&&&&&&&",
"&&&&&&&&&&&&&&&&&&&&&&",
"*********e&&f*********",
"=====ghij%&&*jihg=====",
"####klmno%&&*onmlk####",
"###kpqris%&&*tirqpk###",
"##ulqvwxy%&&*axwvqlu##",
"#zAmrwx#$%&&*=#xwrmAz#",
"zBCnix##$%&&*=##xinCBz",
"DE-FG<##$%&&*=##<GF-ED",
"qHIJK###$%&&*=###KJIHq",
"LMNO####$%&&*=####ONML"};
