/* XPM */
static char *cubeicon[] = {
/* columns rows colors chars-per-pixel */
"48 48 73 1",
"  c #27231F",
". c #28241F",
"X c #242423",
"o c #2A2623",
"O c #2E2A26",
"+ c #2E2B28",
"@ c #302C27",
"# c #302C28",
"$ c #35312E",
"% c #363431",
"& c #393633",
"* c #3C3936",
"= c #3E3B39",
"- c #413E3C",
"; c #43403E",
": c #464441",
"> c #484644",
", c #4B4946",
"< c #4D4B4A",
"1 c #514F4D",
"2 c #52514F",
"3 c #555452",
"4 c #595754",
"5 c #5B5957",
"6 c #5D5B59",
"7 c #615F5D",
"8 c #62605E",
"9 c #656462",
"0 c #696766",
"q c #696867",
"w c #6C6B69",
"e c #706E6D",
"r c #71706F",
"t c #747372",
"y c #787775",
"u c #797877",
"i c #7D7C7B",
"p c #7F807F",
"a c #807F7E",
"s c #81807E",
"d c #848382",
"f c #888786",
"g c #8C8B8B",
"h c #908F8E",
"j c #91908F",
"k c #959493",
"l c #989796",
"z c #999897",
"x c #9B9B9A",
"c c #A1A09F",
"v c #A3A3A2",
"b c #A8A7A7",
"n c #A8A8A7",
"m c #ABABAB",
"M c #B0AFAF",
"N c #B0B0AF",
"B c #B3B3B2",
"V c #BCBCBB",
"C c #C0BFBF",
"Z c #C3C3C3",
"A c #CDCDCC",
"S c #D0CFCF",
"D c #D0D0CF",
"F c #D4D4D4",
"G c #DCDCDC",
"H c #DFE0E0",
"J c #E3E3E3",
"K c #E8E7E7",
"L c #EBEBEB",
"P c #EFEFF0",
"I c #F4F4F4",
"U c #F7F7F8",
"Y c #FDFDFD",
/* pixels */
"@@@@@@@@@@@@@@@@@+Ooo...  XXX++O@@@@@@@@@@@@@@@@",
"@@+@@@@@@@@@@@@@@Oo&<680996>%XOO@@@@@@@@@@@@@@@@",
"@@@@@@@@@@@@@@O@&6kVGJLLKLKGCk6&@OOO@@@@@@@@@@@@",
"@@@@@@@@@@@@o@6hZLYYYYYYYYYYYUPZg7@o@@@@@@@@@@@@",
"@@@@@@@@+@OO,zJYYYYYYYYYYYYYYYYYYJz,oO+O@@@@@@@@",
"@@@@@@@@+o*dFUYYYYYYYYUIIIUYYYYYYYUFd*OO@@@@@@@@",
"@@@@@@@@O:xIYYYYYIJANguw0wizZGIYYYYYIv:O@@@@@@@@",
"@@@@@@@o1ZUYYYYIZd4;#OoOOOoO*3iVIYYYYIZ3o@@@@@@@",
"@@@@@O+3VYYYYUFf;oooO@@@O@@@Ooo-fFUYUYYV1@@@@@@@",
"@@@@@o>ZYYYYPc>+o@@@@@@@@@@@O@+oO,cIYYYYZ>o@@@@@",
"@@@@O-nUYYYLg%O@@@@@@@@@@O@@@@@@@O%gKYYYUb-@@@@@",
"@@@+OhIYYYKi#+@@@@@@@OoOOOOO@@@@++o@uKYYYIgo@@@@",
"@@+O3GYYYId+O+@@@@@oO$>331=@oO@+@@@@+iLYYYG3o@@@",
"@@O%vYYYUz%O@@@@@@o,dmAGGFZx7&O@@@@@++kUYYYb%O@@",
"@@OwLYYYZ-O@@@@+O;lDIYYYYYYYJV9@O@@@+O=ZYYYLwO@@",
"@@#vYYYLu+@@@@@o3VUYYYYYYYYYYYKg%O@@@+OtLYYYc$@@",
"OO:GYYYm&+@@+OX6AYUYUYYUIYYYYUYPz&O+++O%mYYYF>@@",
"OoiUYYK0o@@+O+,ZYYYYIAvprpBHYYYYIgOO@+@XwLYYIio@",
"X%BYYYD;o+++O+nYYYYFt-++X+%2mIYYYG6o+@@o>GYYYB$O",
"X<FYYYv@+@++X4GYYUF7X++++++X=lPYYYb%O@@O#BYYYG<o",
"X9KYYIto@@@O+cYYYKqO@@++####O&BYUYJ8O@@@ofUYYK7 ",
"XtIYYL1O@@+O,DYYYKxlkzzlxlxlllZUYYYfO@@@o9IYYIto",
"XiIYYJ-@@@@o9LYYYYYYYYYUYYYYYYYYYYYc$@@@+,JYYIaO",
"XiIYYF=O@@@OtYYYJkiadadFUBdpddiVUYYN$@@@O=GYYIao",
"XdIYYF-O@@@oiYYYD;.ooo+NUiXXXXXiIYYB%@@@+*FYYIso",
"odIYYJ-@##@OuYYYH3o@@@@NUpX++OodIYYN%@@@O=FYYUso",
"XuIYYL1O###owPYYUro@@@@NIiX+OO#bYYYb$@@@O:GYYIuo",
".wLYYIro###o1FYYYm$@@@@BUpo++O6GYYYk@@@@X<KYYLw.",
".5JYYYkO@@@O$bYYYG2o@@@gC0o@+$vYYYIwO++OX9PYYJ5.",
"o:DYYYZ*O@@@.8KYYYC,oo@&*$@O+tLYYYV*O++OXgUYYA;o",
"@@vYYYG1o@@@@$NYYYYCq%.. .@;fJYYYK0OO+OO%VYYYcO@",
"@o9IYYIio@@@@o6GUYYYLm0>>5gZIYUYYv@O@@OX6JYYIwo@",
"@@*ZYYYZ;O@@@@@rGYYYYYKGFJUYYYYUm>O@+++%xYYYZ=@@",
"@@@lYYYUfO@+@@O@yGYYYYYYYYYYYYIm-o@@++OtKYYYg@@@",
"O@@6GYYYG1o+@@@O@4mLYYYYYYYYIDa=@@@@+o>AYYYG3O@@",
"+@O+fIYYUN-O@@@@@o%eNFIYUYJZg<OO@@@@O=cUYYIg@+@@",
"@+@O=ZYYYUn*O@@@@@OO$1ZYYJw=@OO@@@+O%cIYYYZ=O@@+",
"@@@@orHYYYIx-o@@@@@@o%VYYJ4oOO@@@@X*hPYYYJwo+@@@",
"@@@@@@aIYYYUM<OO@@@@O%VYYJ4o@@@@Oo=cIYYYLa@@@@@@",
"@@@@@O$xIYYYUZr&oO@@@%VYYJ4O@@Oo%wZUYYYPk$O@@@@@",
"@@@@@@o&lUYYYYLb4$ooo%VYYH5oo.$5mKYYYYIk%@@@@@@@",
"@@@@@@@@&kKYYYYYGNa1#*VYYH5&8gNGYYYYYKk*O@@@@@@@",
"@@@@@@@@o@iGYYYYYYIHCmHYYIADPYYYYUYYFy@O@@@@@@@@",
"@@@@@@@@@@@3cLYYYYYYYYYYYYYYYYYYYYKv2OO@@@@@@@@@",
"@@@@@@@@@@@o@eZLYYYYYYYYYYYYYYYYKVq$o@@@@@@@@@@@",
"@@@@@@@@@@@@oo*2gAPYYYYYYYYYYPAh3*oo@@@@@+@@@@@@",
"@@@@@@@@@@@@@@@o@-whmCZZZZVmhw;@O@@@@@@@@@@@@@@@",
"@@@@@@@@@@@@@@@@@O.O$*****%&O.o@@@@@@@@@@@@@@@@@"
};
