<svg version="1.1" viewBox="0 0 256 256" xmlns="http://www.w3.org/2000/svg">
 <g fill="#1793d1">
  <path d="m127.98 12.07c-10.316 25.309-16.543 41.855-28.031 66.41 7.043 7.4609 15.691 16.156 29.734 25.977-15.098-6.207-25.395-12.445-33.094-18.918-14.703 30.68-37.742 74.391-84.492 158.39 36.746-21.219 65.23-34.293 91.773-39.289-1.1406-4.8945-1.7852-10.195-1.7422-15.734l0.042969-1.1719c0.58203-23.551 12.828-41.645 27.336-40.418 14.508 1.2266 25.781 21.316 25.199 44.867-0.10938 4.4219-0.60938 8.6914-1.4805 12.641 26.258 5.1328 54.438 18.18 90.684 39.105-7.1484-13.156-13.527-25.016-19.621-36.316-9.5938-7.4336-19.605-17.117-40.023-27.594 14.035 3.6406 24.082 7.8516 31.914 12.555-61.941-115.32-66.957-130.66-88.199-180.5z" fill-rule="evenodd"/>
  <path d="m235.17 210.61v-5.832h-2.1758v-0.78125h5.2383v0.78125h-2.1875v5.832h-0.875"/>
  <path d="m239.14 210.61v-6.6133h1.3164l1.5664 4.6836c0.14453 0.43359 0.24609 0.76172 0.3125 0.97656 0.078125-0.23828 0.19531-0.59375 0.35156-1.0586l1.5859-4.6016h1.1758v6.6133h-0.84375v-5.5352l-1.9219 5.5352h-0.78906l-1.9102-5.6289v5.6289h-0.84375"/>
 </g>
</svg>
