<svg width="360" height="360" version="1.0" xmlns="http://www.w3.org/2000/svg">
 <g transform="translate(-201.63 22.962)">
  <path d="m381.06 24.896c-8.7636 21.486-14.055 35.559-23.813 56.406 5.9823 6.3413 13.325 13.691 25.25 22.031-12.821-5.2756-21.558-10.535-28.094-16.031-12.487 26.056-32.08 63.133-71.781 134.47 31.198-18.011 55.398-29.104 77.938-33.344-0.96715-4.1618-1.5061-8.6782-1.4688-13.375l0.0312-0.96875c0.49515-19.992 10.899-35.388 23.219-34.344 12.319 1.0438 21.901 18.133 21.406 38.125-0.0931 3.7597-0.50934 7.3639-1.25 10.719 22.29 4.3659 46.232 15.424 77 33.188-6.0696-11.174-11.514-21.219-16.688-30.812-8.1493-6.3162-16.63-14.538-33.969-23.438 11.918 3.0967 20.474 6.6628 27.125 10.656-52.602-97.935-56.868-110.95-74.906-153.28z" fill="#1793d1" fill-rule="evenodd"/>
  <text x="475.51663" y="207.00311" fill="#87cdde" font-family="'DejaVu Sans Mono'" stroke-width="1px" style="line-height:0%" xml:space="preserve"><tspan x="475.51663" y="207.00311" font-size="6.1069px" style="line-height:1.25">TM</tspan></text>
  <g transform="matrix(.47879 0 0 .47879 65.332 87.93)" fill="#fff" fill-rule="evenodd">
   <path d="m339.97 309.09c-14.471-0.0239-26.481 2.9437-31.125 4.5625l-4.7812 25.812c-0.0116 0.0951 23.795-6.3486 34.281-5.9688 17.362 0.62381 18.959 6.6354 18.656 14.75 0.29595 0.47462-4.4793-7.3319-19.5-7.5938-18.95-0.32687-45.693 6.7095-45.656 35.312-0.51086 32.174 24.034 41.639 40.75 41.812 15.028-0.27364 22.078-5.6914 25.938-8.5938 5.0712-5.3024 10.873-10.634 16.406-17.031-5.2357 9.5128-9.7747 16.09-14.5 21.125v4.25l22.844-3.8438 0.15625-62.094c-0.23141-8.7884 5.0412-42.418-43.469-42.5zm-3.2812 54.062c9.4689 0.12995 20.328 4.7971 20.344 16.031 0.049 10.218-12.8 15.712-21.156 15.625-8.3598-0.0868-19.451-6.5698-19.5-16.531 0.16016-8.9044 10.46-15.354 20.312-15.125z"/>
   <path d="m398.5 314.83-0.15505 102.83 26.612-5.1272 0.0449-58.302c6e-3 -8.6809 12.406-18.825 27.963-18.663 3.302-5.9741 9.5087-21.242 11.021-24.715-34.756-0.0833-35.199 9.9899-41.244 14.945-0.0631-9.4528-0.0213-15.127-0.0213-15.127z"/>
   <path d="m548.27 328.33c-0.25696-0.12068-13.879-15.934-41.266-16.059-25.652-0.42638-54.426 9.519-54.886 52.533 0.22457 37.819 27.64 52.598 55.031 52.886 29.313 0.30451 40.977-18.329 41.676-18.791-3.4976-3.0321-16.598-16.013-16.598-16.013s-8.1824 11.651-24.058 11.799c-15.879 0.1512-29.682-12.273-29.878-29.609-0.20349-17.336 12.689-26.728 29.997-27.487 14.985-3e-3 23.63 9.6733 23.63 9.6733z"/>
   <path d="m581.81 278.84-25.125 5.9062 0.1875 133.94 24.75-4.4688 0.28125-63.031c0.0529-6.6093 9.5613-16.759 25.438-16.438 15.18 0.15775 18.572 10.118 18.531 11.375l0.4375 72.969 24.406-4.3125 0.0937-77.375c0.1607-7.4454-16.308-23.17-42.781-23.281-12.581 0.0202-19.548 2.8682-23.094 4.9688-6.0666 4.6856-13 9.1754-19.812 14.906 6.2981-8.091 11.586-13.685 16.75-17.844z"/>
  </g>
  <g transform="matrix(.70885 0 .010031 .70885 96.753 -223.33)" fill="#1793d1" fill-rule="evenodd">
   <path d="m400.68 629.8 7.6817-1.9158-0.92851 91.208-7.7957 1.3243z"/>
   <path d="m421.1 657.02 6.7506-2.9867-0.86808 65.399-6.4978 1.3392zm-1.2606-23.583 5.4717-4.4153 4.4226 4.9995-5.4756 4.5322z"/>
   <path d="m440.44 655.83 7.6776-1.562-0.1573 13.672c-7e-3 0.58717 4.4194-15.274 24.685-14.921 19.68 0.10952 22.684 15.346 22.529 18.762l-0.43759 48.078-6.7304 1.4563 0.63316-47.489c0.0974-1.3868-2.8814-13.114-16.789-13.158-13.905-0.0404-23.684 10.1-23.758 16.579l-0.48127 41.835-7.8039 2.0313z"/>
   <path d="m561.53 720.2-7.6776 1.5619 0.15737-13.672c7e-3 -0.58742-4.422 15.274-24.685 14.921-19.68-0.10944-22.684-15.346-22.529-18.762l0.43757-48.079 8.1567-1.6423-0.54644 47.49c-0.0149 1.2968 1.3684 13.3 15.276 13.343 13.905 0.0405 23.766-8.3736 24.015-21.044l0.43105-37.469 7.5978-1.932z"/>
   <path d="m577.45 655.29-5.4272 4.2002 20.199 26.933-22.391 31.116 5.635 4.226 21.044-28.897 20.878 29.582 5.3273-4.201-22.376-31.629 18.57-25.578-5.5319-4.7343-16.921 23.668z"/>
  </g>
  <text x="550.83258" y="284.34351" fill="#87cdde" font-family="'DejaVu Sans Mono'" stroke-width="1px" style="line-height:0%" xml:space="preserve"><tspan x="550.83258" y="284.34351" font-size="6.3363px" style="line-height:1.25">TM</tspan></text>
 </g>
</svg>
