<svg version="1.1" viewBox="0 0 256 85.085" xmlns="http://www.w3.org/2000/svg">
 <g>
  <path d="m85.988 28.992c-3.4453-0.007813-6.3047 0.69922-7.4102 1.0859l-1.1367 6.1445c-0.003906 0.019532 5.6641-1.5117 8.1602-1.4219 4.1328 0.14844 4.5117 1.5781 4.4414 3.5117 0.070312 0.11328-1.0664-1.7461-4.6445-1.8086-4.5078-0.078125-10.875 1.5977-10.867 8.4062-0.12109 7.6562 5.7227 9.9102 9.6992 9.9531 3.5781-0.066406 5.2578-1.3555 6.1758-2.0469 1.207-1.2617 2.5859-2.5312 3.9062-4.0547-1.2461 2.2656-2.3281 3.832-3.4531 5.0312v1.0078l5.4375-0.91406 0.039063-14.781c-0.058594-2.0898 1.1992-10.094-10.348-10.113zm-0.78125 12.867c2.2539 0.03125 4.8359 1.1406 4.8398 3.8164 0.011719 2.4336-3.0469 3.7383-5.0352 3.7188s-4.6289-1.5625-4.6406-3.9336c0.039062-2.1211 2.4883-3.6562 4.8359-3.6016z" fill="#4d4d4d" fill-rule="evenodd"/>
  <path d="m99.918 30.355-0.035157 24.477 6.3359-1.2188 0.007812-13.879c0.003907-2.0664 2.9531-4.4805 6.6562-4.4414 0.78906-1.4219 2.2656-5.0586 2.625-5.8828-8.2734-0.019531-8.3789 2.3789-9.8164 3.5547-0.015625-2.25-0.007812-3.5977-0.007812-3.5977z" fill="#4d4d4d" fill-rule="evenodd"/>
  <path d="m135.57 33.57c-0.0625-0.027343-3.3047-3.793-9.8242-3.8242-6.1055-0.10156-12.953 2.2656-13.062 12.504 0.050781 9.0039 6.5781 12.523 13.098 12.59 6.9766 0.074218 9.7539-4.3633 9.9219-4.4727-0.83203-0.72266-3.9531-3.8125-3.9531-3.8125s-1.9453 2.7734-5.7266 2.8086c-3.7773 0.039063-7.0664-2.9219-7.1094-7.0469-0.050781-4.125 3.0195-6.3633 7.1367-6.543 3.5703 0 5.625 2.3047 5.625 2.3047z" fill="#4d4d4d" fill-rule="evenodd"/>
  <path d="m143.55 21.789-5.9805 1.4062 0.042969 31.883 5.8906-1.0625 0.070313-15.004c0.011719-1.5742 2.2734-3.9922 6.0547-3.9141 3.6133 0.039063 4.418 2.4102 4.4102 2.707l0.10547 17.371 5.8086-1.0273 0.023438-18.418c0.035156-1.7734-3.8828-5.5156-10.184-5.543-2.9961 0.003906-4.6562 0.68359-5.5 1.1836-1.4414 1.1172-3.0938 2.1836-4.7148 3.5469 1.5-1.9258 2.7578-3.2578 3.9883-4.2461z" fill="#4d4d4d" fill-rule="evenodd"/>
  <path d="m165.02 22.617 2.6992-0.67578 0.12891 32.145-2.7422 0.46484z" fill="#1793d1" fill-rule="evenodd"/>
  <path d="m172.36 32.211 2.3633-1.0547 0.019532 23.051-2.2812 0.46875zm-0.5625-8.3125 1.9062-1.5547 1.582 1.7617-1.9062 1.5977z" fill="#1793d1" fill-rule="evenodd"/>
  <path d="m179.17 31.789 2.6992-0.55078 0.011718 4.8203c0 0.20703 1.4805-5.3828 8.625-5.2578 6.9375 0.039063 8.0703 5.4062 8.0312 6.6133l0.085938 16.941-2.3633 0.51172-0.011718-16.734c0.027344-0.48828-1.082-4.6211-5.9844-4.6367-4.8984-0.015625-8.2969 3.5586-8.2891 5.8438l0.039063 14.742-2.7422 0.71484z" fill="#1793d1" fill-rule="evenodd"/>
  <path d="m222.16 54.477-2.6992 0.55078-0.011719-4.8164c0-0.20703-1.4844 5.3828-8.625 5.2578-6.9375-0.039062-8.0703-5.4102-8.0352-6.6133l-0.085938-16.941 2.8672-0.58203 0.046875 16.738c0 0.45703 0.54688 4.6875 5.4492 4.7031 4.8984 0.011718 8.332-2.9531 8.3555-7.418l-0.035156-13.203 2.668-0.68359z" fill="#1793d1" fill-rule="evenodd"/>
  <path d="m227.45 31.602-1.8906 1.4805 7.2539 9.4883-7.7383 10.969 2.0078 1.4883 7.2734-10.184 7.5039 10.426 1.8555-1.4805-8.043-11.148 6.418-9.0117-1.9727-1.668-5.8477 8.3398z" fill="#1793d1" fill-rule="evenodd"/>
  <path d="m45.148 7.0938c-3.1562 7.7383-5.0625 12.797-8.5742 20.305 2.1523 2.2852 4.7969 4.9453 9.0938 7.9492-4.6172-1.9023-7.7695-3.8086-10.121-5.7891-4.4961 9.3867-11.543 22.75-25.84 48.441 11.238-6.4883 19.949-10.488 28.066-12.012-0.34766-1.5-0.54688-3.1211-0.53516-4.8164l0.015625-0.35938c0.17969-7.1992 3.9219-12.734 8.3594-12.359s7.8867 6.5195 7.707 13.719c-0.035156 1.3555-0.1875 2.6602-0.45312 3.8672 8.0312 1.5703 16.648 5.5625 27.734 11.961-2.1875-4.0234-4.1367-7.6523-6-11.105-2.9375-2.2773-5.9961-5.2344-12.242-8.4414 4.293 1.1172 7.3672 2.4023 9.7617 3.8398-18.945-35.27-20.477-39.957-26.973-55.199z" fill="#1793d1" fill-rule="evenodd"/>
  <path d="m247.25 53.062v-1.9883h-0.74219v-0.26562h1.7891v0.26562h-0.74609v1.9883h-0.30078" fill="#1793d1"/>
  <path d="m248.6 53.062v-2.2539h0.44922l0.53516 1.5977c0.050781 0.14844 0.085937 0.25781 0.10937 0.33203 0.023438-0.082031 0.0625-0.20312 0.11719-0.35938l0.53906-1.5703h0.40234v2.2539h-0.28516v-1.8867l-0.65625 1.8867h-0.26953l-0.65234-1.918v1.918h-0.28906" fill="#1793d1"/>
  <path d="m80.949 71.672v-1.9453h-0.72656v-0.25781h1.75v0.25781h-0.73047v1.9453h-0.29297" fill="#1793d1"/>
  <path d="m82.273 71.672v-2.2031h0.44141l0.51953 1.5586c0.050781 0.14453 0.085937 0.25391 0.10547 0.32812 0.027344-0.082031 0.066406-0.19922 0.11719-0.35547l0.52734-1.5312h0.39453v2.2031h-0.28125v-1.8438l-0.64062 1.8438h-0.26562l-0.63672-1.8789v1.8789h-0.28125" fill="#1793d1"/>
 </g>
</svg>
