<svg width="180" height="180" version="1.0" xmlns="http://www.w3.org/2000/svg">
 <g transform="translate(-50.6 -139.51)">
  <g transform="matrix(.87464 0 0 .87464 14.731 23.409)">
   <path transform="matrix(1.1433,0,0,1.1433,22.92,121.64)" d="m105.81 16.625c-7.3969 18.135-11.858 29.998-20.094 47.594 5.0494 5.3523 11.247 11.585 21.312 18.625-10.821-4.4528-18.203-8.9234-23.719-13.562-10.54 21.993-27.053 53.321-60.562 113.53 26.338-15.205 46.754-24.579 65.781-28.156-0.81703-3.514-1.2816-7.3152-1.25-11.281l0.03125-0.84375c0.41792-16.874 9.1957-29.85 19.594-28.969 10.398 0.88104 18.48 15.282 18.062 32.156-0.0786 3.1751-0.43674 6.2296-1.0625 9.0625 18.821 3.6816 39.019 13.032 65 28.031-5.123-9.4318-9.6957-17.934-14.062-26.031-6.8784-5.3312-14.053-12.27-28.688-19.781 10.059 2.6138 17.261 5.6293 22.875 9-44.398-82.662-47.994-93.646-63.219-129.38z" fill="#1793d1" fill-rule="evenodd"/>
  </g>
 </g>
</svg>
