/* XPM */
static const char * qcad_xpm[] = {
"32 32 97 2",
"  	c None",
". 	c #3F3F3F",
"+ 	c #010180",
"@ 	c #FFFFFF",
"# 	c #E0E0EF",
"$ 	c #41419F",
"% 	c #4545A1",
"& 	c #4949A3",
"* 	c #4D4DA5",
"= 	c #5151A7",
"- 	c #5555A9",
"; 	c #5959AB",
"> 	c #4444A2",
", 	c #3C3C9D",
"' 	c #40409F",
") 	c #4444A1",
"! 	c #4848A3",
"~ 	c #4C4CA5",
"{ 	c #5050A7",
"] 	c #5454A9",
"^ 	c #5858AB",
"/ 	c #5D5DAD",
"( 	c #6161AF",
"_ 	c #6565B1",
": 	c #5C5CAD",
"< 	c #6060AF",
"[ 	c #6464B1",
"} 	c #6868B3",
"| 	c #6C6CB5",
"1 	c #7070B7",
"2 	c #7474B9",
"3 	c #7878BB",
"4 	c #3F3F9E",
"5 	c #4343A0",
"6 	c #4747A3",
"7 	c #4B4BA5",
"8 	c #000000",
"9 	c #7C7CBD",
"0 	c #8080BF",
"a 	c #4747A2",
"b 	c #4B4BA4",
"c 	c #4F4FA6",
"d 	c #7B7BBD",
"e 	c #7F7FBF",
"f 	c #8383C1",
"g 	c #5353A8",
"h 	c #8787C3",
"i 	c #5757AA",
"j 	c #8B8BC5",
"k 	c #4E4EA6",
"l 	c #5252A8",
"m 	c #5656AA",
"n 	c #5A5AAC",
"o 	c #8787C2",
"p 	c #8F8FC7",
"q 	c #5E5EAE",
"r 	c #8B8BC4",
"s 	c #8F8FC6",
"t 	c #9393C8",
"u 	c #6262B0",
"v 	c #8E8EC6",
"w 	c #9292C8",
"x 	c #9696CA",
"y 	c #6666B2",
"z 	c #9A9ACC",
"A 	c #6A6AB4",
"B 	c #9E9ECE",
"C 	c #6565B2",
"D 	c #6969B4",
"E 	c #6D6DB6",
"F 	c #7171B8",
"G 	c #7575BA",
"H 	c #9D9DCE",
"I 	c #A1A1D0",
"J 	c #7171B7",
"K 	c #7575B9",
"L 	c #7979BC",
"M 	c #7D7DBE",
"N 	c #8181C0",
"O 	c #8585C2",
"P 	c #8989C4",
"Q 	c #8D8DC6",
"R 	c #9191C8",
"S 	c #9595CA",
"T 	c #9999CC",
"U 	c #A5A5D2",
"V 	c #7979BB",
"W 	c #7D7DBD",
"X 	c #8181BF",
"Y 	c #8585C1",
"Z 	c #8989C3",
"` 	c #A9A9D4",
" .	c #8D8DC5",
"..	c #9191C7",
"+.	c #9595C9",
"@.	c #9999CB",
"#.	c #ADADD6",
"                                                                ",
"    . . . . . . . . . . . . . . . . . . . . . . . . . . . . .   ",
"    .       .       .       .       .       .       .       .   ",
"    .       .       .   + + + + + + +       .       .       .   ",
"    .     @ .     @ + + # # # # # # # + + @ .     @ .     @ .   ",
"    . . . . . . . + # # $ % & * = - ; > > + . . . . . . . . .   ",
"    .       .   + # , ' ) ! ~ { ] ^ / ( _ > +       .       .   ",
"    .       . + # , ' ) ! ~ { ] ^ : < [ } | > +     .       .   ",
"    .     @ + # , ' ) ! ~ { ] ^ : < [ } | 1 2 > + @ .     @ .   ",
"    . . . . + # ' ) ! . . . . . . . . . 1 2 3 > + . . . . . .   ",
"    .     + # 4 5 6 7 . @ @ @ @ @ @ @ . 8 3 9 0 > + .       .   ",
"    .     + # 5 a b c . @ @ @ @ @ @ @ . 8 d e f > + .       .   ",
"    .     + # a b c g . @ @ @ @ @ @ @ . 8 e f h > + .     @ .   ",
"    . . . + # b c g i . @ @ @ @ @ @ @ . 8 f h j > + . . . . .   ",
"    .     + # k l m n . @ @ @ @ @ @ @ . 8 o j p > + .       .   ",
"    .     + # l m n q . @ @ @ @ @ @ @ . 8 r s t > + .       .   ",
"    .     + # m n q u . @ @ @ @ @ @ @ . 8 v w x > + .     @ .   ",
"    . . . + # n q u y . @ @ @ @ @ @ @ . 8 w x z > + . . . . .   ",
"    .     + # q u y A . @ @ @ @ @ @ @ . 8 x z B > + .       .   ",
"    .       + > C D E . . . . . . . . . 8 z B > +   .       .   ",
"    .     @ + > D E F G 8 8 8 8 8 8 8 8 8 H I > + @ .     @ .   ",
"    . . . . . + > J K L M N O P Q R S T H I U + . . . . . . .   ",
"    .       .   + > V W X Y Z Q R S T H I U ` > +   .       .   ",
"    .       .     + > > Y Z  ...+.@.H > U ` #.#.> + .       .   ",
"    .     @ .     @ + + > > > > > > > + > #.#.#.> + .     @ .   ",
"    . . . . . . . . . . + + + + + + + . + > #.#.> + . . . . .   ",
"    .       .       .       .       .     + > > +   .       .   ",
"    .       .       .       .       .       + +     .       .   ",
"    .     @ .     @ .     @ .     @ .     @ .     @ .     @ .   ",
"    . . . . . . . . . . . . . . . . . . . . . . . . . . . . .   ",
"                                                                ",
"                                                                "};
